<?xml version="1.0" encoding="UTF-8" standalone="no"?>
<!-- Created with Inkscape (http://www.inkscape.org/) -->

<svg
   width="210mm"
   height="297mm"
   viewBox="0 0 210 297"
   version="1.1"
   id="svg5"
   inkscape:version="1.2.1 (9c6d41e410, 2022-07-14)"
   sodipodi:docname="flourish.svg"
   inkscape:export-filename="flourish.jpg"
   inkscape:export-xdpi="72"
   inkscape:export-ydpi="72"
   xmlns:inkscape="http://www.inkscape.org/namespaces/inkscape"
   xmlns:sodipodi="http://sodipodi.sourceforge.net/DTD/sodipodi-0.dtd"
   xmlns:xlink="http://www.w3.org/1999/xlink"
   xmlns="http://www.w3.org/2000/svg"
   xmlns:svg="http://www.w3.org/2000/svg">
  <sodipodi:namedview
     id="namedview7"
     pagecolor="#ffffff"
     bordercolor="#666666"
     borderopacity="1.0"
     inkscape:showpageshadow="2"
     inkscape:pageopacity="0.0"
     inkscape:pagecheckerboard="0"
     inkscape:deskcolor="#d1d1d1"
     inkscape:document-units="mm"
     showgrid="false"
     inkscape:zoom="0.54677766"
     inkscape:cx="470.02652"
     inkscape:cy="659.31735"
     inkscape:window-width="1920"
     inkscape:window-height="1051"
     inkscape:window-x="-9"
     inkscape:window-y="-9"
     inkscape:window-maximized="1"
     inkscape:current-layer="layer1" />
  <defs
     id="defs2">
    <linearGradient
       inkscape:collect="always"
       id="linearGradient1159">
      <stop
         style="stop-color:#23b816;stop-opacity:1;"
         offset="0"
         id="stop1155" />
      <stop
         style="stop-color:#f3ff00;stop-opacity:0;"
         offset="1"
         id="stop1157" />
    </linearGradient>
    <inkscape:path-effect
       effect="skeletal"
       id="path-effect567"
       is_visible="true"
       lpeversion="1"
       pattern="M 0,4.9921382 C 0,2.2364779 2.2364779,0 4.9921382,0 c 2.7556604,0 4.9921383,2.2364779 4.9921383,4.9921382 0,2.7556604 -2.2364779,4.9921383 -4.9921383,4.9921383 C 2.2364779,9.9842765 0,7.7477986 0,4.9921382 Z"
       copytype="single_stretched"
       prop_scale="1.1211639"
       scale_y_rel="false"
       spacing="0"
       normal_offset="0"
       tang_offset="0"
       prop_units="false"
       vertical_pattern="false"
       hide_knot="false"
       fuse_tolerance="0" />
    <inkscape:path-effect
       effect="spiro"
       id="path-effect565"
       is_visible="true"
       lpeversion="1" />
    <inkscape:path-effect
       effect="simplify"
       id="path-effect563"
       is_visible="true"
       lpeversion="1"
       steps="1"
       threshold="0.00108696"
       smooth_angles="360"
       helper_size="0"
       simplify_individual_paths="false"
       simplify_just_coalesce="false" />
    <inkscape:path-effect
       effect="skeletal"
       id="path-effect559"
       is_visible="true"
       lpeversion="1"
       pattern="M 0,4.9921382 C 0,2.2364779 2.2364779,0 4.9921382,0 c 2.7556604,0 4.9921383,2.2364779 4.9921383,4.9921382 0,2.7556604 -2.2364779,4.9921383 -4.9921383,4.9921383 C 2.2364779,9.9842765 0,7.7477986 0,4.9921382 Z"
       copytype="single_stretched"
       prop_scale="1.5159831"
       scale_y_rel="false"
       spacing="0"
       normal_offset="0"
       tang_offset="0"
       prop_units="false"
       vertical_pattern="false"
       hide_knot="false"
       fuse_tolerance="0" />
    <inkscape:path-effect
       effect="spiro"
       id="path-effect557"
       is_visible="true"
       lpeversion="1" />
    <inkscape:path-effect
       effect="simplify"
       id="path-effect555"
       is_visible="true"
       lpeversion="1"
       steps="1"
       threshold="0.00108696"
       smooth_angles="360"
       helper_size="0"
       simplify_individual_paths="false"
       simplify_just_coalesce="false" />
    <inkscape:path-effect
       effect="powerstroke"
       id="path-effect551"
       is_visible="true"
       lpeversion="1"
       offset_points="0,8.2311312"
       not_jump="false"
       sort_points="true"
       interpolator_type="CubicBezierJohan"
       interpolator_beta="0.2"
       start_linecap_type="zerowidth"
       linejoin_type="extrp_arc"
       miter_limit="4"
       scale_width="1"
       end_linecap_type="zerowidth" />
    <inkscape:path-effect
       effect="spiro"
       id="path-effect549"
       is_visible="true"
       lpeversion="1" />
    <inkscape:path-effect
       effect="simplify"
       id="path-effect547"
       is_visible="true"
       lpeversion="1"
       steps="1"
       threshold="0.00108696"
       smooth_angles="360"
       helper_size="0"
       simplify_individual_paths="false"
       simplify_just_coalesce="false" />
    <inkscape:path-effect
       effect="powerstroke"
       id="path-effect543"
       is_visible="true"
       lpeversion="1"
       offset_points="0,8.2311312"
       not_jump="false"
       sort_points="true"
       interpolator_type="CubicBezierJohan"
       interpolator_beta="0.2"
       start_linecap_type="zerowidth"
       linejoin_type="extrp_arc"
       miter_limit="4"
       scale_width="1"
       end_linecap_type="zerowidth" />
    <inkscape:path-effect
       effect="spiro"
       id="path-effect541"
       is_visible="true"
       lpeversion="1" />
    <inkscape:path-effect
       effect="simplify"
       id="path-effect539"
       is_visible="true"
       lpeversion="1"
       steps="1"
       threshold="0.00108696"
       smooth_angles="360"
       helper_size="0"
       simplify_individual_paths="false"
       simplify_just_coalesce="false" />
    <inkscape:path-effect
       effect="powerstroke"
       id="path-effect535"
       is_visible="true"
       lpeversion="1"
       offset_points="0,8.2311312"
       not_jump="false"
       sort_points="true"
       interpolator_type="CubicBezierJohan"
       interpolator_beta="0.2"
       start_linecap_type="zerowidth"
       linejoin_type="extrp_arc"
       miter_limit="4"
       scale_width="1"
       end_linecap_type="zerowidth" />
    <inkscape:path-effect
       effect="spiro"
       id="path-effect533"
       is_visible="true"
       lpeversion="1" />
    <inkscape:path-effect
       effect="simplify"
       id="path-effect531"
       is_visible="true"
       lpeversion="1"
       steps="1"
       threshold="0.00108696"
       smooth_angles="360"
       helper_size="0"
       simplify_individual_paths="false"
       simplify_just_coalesce="false" />
    <inkscape:path-effect
       effect="powerstroke"
       id="path-effect527"
       is_visible="true"
       lpeversion="1"
       offset_points="0,8.2311312"
       not_jump="false"
       sort_points="true"
       interpolator_type="CubicBezierJohan"
       interpolator_beta="0.2"
       start_linecap_type="zerowidth"
       linejoin_type="extrp_arc"
       miter_limit="4"
       scale_width="1"
       end_linecap_type="zerowidth" />
    <inkscape:path-effect
       effect="spiro"
       id="path-effect525"
       is_visible="true"
       lpeversion="1" />
    <inkscape:path-effect
       effect="simplify"
       id="path-effect523"
       is_visible="true"
       lpeversion="1"
       steps="1"
       threshold="0.00108696"
       smooth_angles="360"
       helper_size="0"
       simplify_individual_paths="false"
       simplify_just_coalesce="false" />
    <inkscape:path-effect
       effect="powerstroke"
       id="path-effect519"
       is_visible="true"
       lpeversion="1"
       offset_points="0,7.796107"
       not_jump="false"
       sort_points="true"
       interpolator_type="CubicBezierJohan"
       interpolator_beta="0.2"
       start_linecap_type="zerowidth"
       linejoin_type="extrp_arc"
       miter_limit="4"
       scale_width="1"
       end_linecap_type="zerowidth" />
    <inkscape:path-effect
       effect="spiro"
       id="path-effect517"
       is_visible="true"
       lpeversion="1" />
    <inkscape:path-effect
       effect="simplify"
       id="path-effect515"
       is_visible="true"
       lpeversion="1"
       steps="1"
       threshold="0.00108696"
       smooth_angles="360"
       helper_size="0"
       simplify_individual_paths="false"
       simplify_just_coalesce="false" />
    <inkscape:path-effect
       effect="skeletal"
       id="path-effect511"
       is_visible="true"
       lpeversion="1"
       pattern="M 0,4.9921382 C 0,2.2364779 2.2364779,0 4.9921382,0 c 2.7556604,0 4.9921383,2.2364779 4.9921383,4.9921382 0,2.7556604 -2.2364779,4.9921383 -4.9921383,4.9921383 C 2.2364779,9.9842765 0,7.7477986 0,4.9921382 Z"
       copytype="single_stretched"
       prop_scale="0.56105658"
       scale_y_rel="false"
       spacing="0"
       normal_offset="0"
       tang_offset="0"
       prop_units="false"
       vertical_pattern="false"
       hide_knot="false"
       fuse_tolerance="0" />
    <inkscape:path-effect
       effect="spiro"
       id="path-effect509"
       is_visible="true"
       lpeversion="1" />
    <inkscape:path-effect
       effect="simplify"
       id="path-effect507"
       is_visible="true"
       lpeversion="1"
       steps="1"
       threshold="0.00108696"
       smooth_angles="360"
       helper_size="0"
       simplify_individual_paths="false"
       simplify_just_coalesce="false" />
    <inkscape:path-effect
       effect="skeletal"
       id="path-effect503"
       is_visible="true"
       lpeversion="1"
       pattern="M 0,4.9921382 C 0,2.2364779 2.2364779,0 4.9921382,0 c 2.7556604,0 4.9921383,2.2364779 4.9921383,4.9921382 0,2.7556604 -2.2364779,4.9921383 -4.9921383,4.9921383 C 2.2364779,9.9842765 0,7.7477986 0,4.9921382 Z"
       copytype="single_stretched"
       prop_scale="1.3872821"
       scale_y_rel="false"
       spacing="0"
       normal_offset="0"
       tang_offset="0"
       prop_units="false"
       vertical_pattern="false"
       hide_knot="false"
       fuse_tolerance="0" />
    <inkscape:path-effect
       effect="spiro"
       id="path-effect501"
       is_visible="true"
       lpeversion="1" />
    <inkscape:path-effect
       effect="simplify"
       id="path-effect499"
       is_visible="true"
       lpeversion="1"
       steps="1"
       threshold="0.00108696"
       smooth_angles="360"
       helper_size="0"
       simplify_individual_paths="false"
       simplify_just_coalesce="false" />
    <inkscape:path-effect
       effect="skeletal"
       id="path-effect387"
       is_visible="true"
       lpeversion="1"
       pattern="M 0,4.9921382 C 0,2.2364779 2.2364779,0 4.9921382,0 c 2.7556604,0 4.9921383,2.2364779 4.9921383,4.9921382 0,2.7556604 -2.2364779,4.9921383 -4.9921383,4.9921383 C 2.2364779,9.9842765 0,7.7477986 0,4.9921382 Z"
       copytype="single_stretched"
       prop_scale="1"
       scale_y_rel="false"
       spacing="0"
       normal_offset="0"
       tang_offset="0"
       prop_units="false"
       vertical_pattern="false"
       hide_knot="false"
       fuse_tolerance="0" />
    <inkscape:path-effect
       effect="spiro"
       id="path-effect385"
       is_visible="true"
       lpeversion="1" />
    <inkscape:path-effect
       effect="simplify"
       id="path-effect383"
       is_visible="true"
       lpeversion="1"
       steps="1"
       threshold="0.00108696"
       smooth_angles="360"
       helper_size="0"
       simplify_individual_paths="false"
       simplify_just_coalesce="false" />
    <inkscape:path-effect
       effect="skeletal"
       id="path-effect379"
       is_visible="true"
       lpeversion="1"
       pattern="M 0,4.9921382 C 0,2.2364779 2.2364779,0 4.9921382,0 c 2.7556604,0 4.9921383,2.2364779 4.9921383,4.9921382 0,2.7556604 -2.2364779,4.9921383 -4.9921383,4.9921383 C 2.2364779,9.9842765 0,7.7477986 0,4.9921382 Z"
       copytype="single_stretched"
       prop_scale="0.56105658"
       scale_y_rel="false"
       spacing="0"
       normal_offset="0"
       tang_offset="0"
       prop_units="false"
       vertical_pattern="false"
       hide_knot="false"
       fuse_tolerance="0" />
    <inkscape:path-effect
       effect="spiro"
       id="path-effect377"
       is_visible="true"
       lpeversion="1" />
    <inkscape:path-effect
       effect="simplify"
       id="path-effect375"
       is_visible="true"
       lpeversion="1"
       steps="1"
       threshold="0.00108696"
       smooth_angles="360"
       helper_size="0"
       simplify_individual_paths="false"
       simplify_just_coalesce="false" />
    <inkscape:path-effect
       effect="skeletal"
       id="path-effect371"
       is_visible="true"
       lpeversion="1"
       pattern="M 0,4.9921382 C 0,2.2364779 2.2364779,0 4.9921382,0 c 2.7556604,0 4.9921383,2.2364779 4.9921383,4.9921382 0,2.7556604 -2.2364779,4.9921383 -4.9921383,4.9921383 C 2.2364779,9.9842765 0,7.7477986 0,4.9921382 Z"
       copytype="single_stretched"
       prop_scale="0.95285895"
       scale_y_rel="false"
       spacing="0"
       normal_offset="0"
       tang_offset="0"
       prop_units="false"
       vertical_pattern="false"
       hide_knot="false"
       fuse_tolerance="0" />
    <inkscape:path-effect
       effect="spiro"
       id="path-effect369"
       is_visible="true"
       lpeversion="1" />
    <inkscape:path-effect
       effect="simplify"
       id="path-effect367"
       is_visible="true"
       lpeversion="1"
       steps="1"
       threshold="0.00108696"
       smooth_angles="360"
       helper_size="0"
       simplify_individual_paths="false"
       simplify_just_coalesce="false" />
    <inkscape:path-effect
       effect="skeletal"
       id="path-effect363"
       is_visible="true"
       lpeversion="1"
       pattern="M 0,4.9921382 C 0,2.2364779 2.2364779,0 4.9921382,0 c 2.7556604,0 4.9921383,2.2364779 4.9921383,4.9921382 0,2.7556604 -2.2364779,4.9921383 -4.9921383,4.9921383 C 2.2364779,9.9842765 0,7.7477986 0,4.9921382 Z"
       copytype="single_stretched"
       prop_scale="1.241213"
       scale_y_rel="false"
       spacing="0"
       normal_offset="0"
       tang_offset="0"
       prop_units="false"
       vertical_pattern="false"
       hide_knot="false"
       fuse_tolerance="0" />
    <inkscape:path-effect
       effect="spiro"
       id="path-effect361"
       is_visible="true"
       lpeversion="1" />
    <inkscape:path-effect
       effect="simplify"
       id="path-effect359"
       is_visible="true"
       lpeversion="1"
       steps="1"
       threshold="0.00108696"
       smooth_angles="360"
       helper_size="0"
       simplify_individual_paths="false"
       simplify_just_coalesce="false" />
    <inkscape:path-effect
       effect="skeletal"
       id="path-effect355"
       is_visible="true"
       lpeversion="1"
       pattern="M 0,4.9921382 C 0,2.2364779 2.2364779,0 4.9921382,0 c 2.7556604,0 4.9921383,2.2364779 4.9921383,4.9921382 0,2.7556604 -2.2364779,4.9921383 -4.9921383,4.9921383 C 2.2364779,9.9842765 0,7.7477986 0,4.9921382 Z"
       copytype="single_stretched"
       prop_scale="1.1521763"
       scale_y_rel="false"
       spacing="0"
       normal_offset="0"
       tang_offset="0"
       prop_units="false"
       vertical_pattern="false"
       hide_knot="false"
       fuse_tolerance="0" />
    <inkscape:path-effect
       effect="spiro"
       id="path-effect353"
       is_visible="true"
       lpeversion="1" />
    <inkscape:path-effect
       effect="simplify"
       id="path-effect351"
       is_visible="true"
       lpeversion="1"
       steps="1"
       threshold="0.00108696"
       smooth_angles="360"
       helper_size="0"
       simplify_individual_paths="false"
       simplify_just_coalesce="false" />
    <inkscape:path-effect
       effect="powerstroke"
       id="path-effect251"
       is_visible="true"
       lpeversion="1"
       offset_points="0.10983932,9.7463172"
       not_jump="false"
       sort_points="true"
       interpolator_type="CubicBezierJohan"
       interpolator_beta="0.2"
       start_linecap_type="zerowidth"
       linejoin_type="extrp_arc"
       miter_limit="4"
       scale_width="1"
       end_linecap_type="zerowidth" />
    <inkscape:path-effect
       effect="spiro"
       id="path-effect249"
       is_visible="true"
       lpeversion="1" />
    <inkscape:path-effect
       effect="simplify"
       id="path-effect247"
       is_visible="true"
       lpeversion="1"
       steps="1"
       threshold="0.00108696"
       smooth_angles="360"
       helper_size="0"
       simplify_individual_paths="false"
       simplify_just_coalesce="false" />
    <linearGradient
       inkscape:collect="always"
       xlink:href="#linearGradient1159"
       id="linearGradient1161"
       x1="109.53853"
       y1="285.3092"
       x2="210"
       y2="0"
       gradientUnits="userSpaceOnUse" />
  </defs>
  <g
     inkscape:label="圖層 1"
     inkscape:groupmode="layer"
     id="layer1">
    <path
       id="path245"
       style="fill:url(#linearGradient1161);fill-opacity:1;fill-rule:nonzero;stroke:none;stroke-width:0.264583px;stroke-linecap:butt;stroke-linejoin:miter;stroke-opacity:1"
       d="m 139.60595,45.487663 c 2.55441,0.384429 5.59835,1.016737 8.99221,1.947168 3.05023,0.7471 6.37607,1.700558 9.48263,3.0887 2.89179,1.292172 5.67156,2.992279 7.97471,5.355229 1.7185,1.793964 3.11537,3.935508 4.16098,6.324678 0.99598,2.27575 1.66446,4.759003 1.98076,7.318417 0.41417,3.790105 0.0877,7.743757 -0.91881,11.635982 -1.43993,6.311109 -4.58597,12.306041 -8.91625,17.446997 -3.68339,4.544646 -8.16449,8.394786 -13.01471,12.408026 -4.68997,3.88066 -9.85823,8.01511 -14.3185,12.83953 -5.446,5.77865 -9.90997,12.62057 -12.962,20.13985 -1.14271,-2.19352 -2.74791,-4.31413 -4.90151,-6.1345 -3.63264,-2.89588 -8.05881,-4.52731 -12.63799,-4.89841 -0.42508,-0.0345 -0.84772,-0.0577 -1.26711,-0.0703 -7.087385,-0.30292 -13.480074,1.72352 -18.4552,4.60747 -7.614839,4.31825 -11.56109,10.39506 -13.01626,14.82183 -1.181922,3.65204 -0.706252,5.84976 0.02945,6.06371 0.81834,0.23798 2.012643,-1.4426 4.093291,-3.83025 2.618579,-3.0354 6.430658,-6.60761 12.7925,-9.42423 4.130656,-1.77075 9.076468,-3.03896 14.082859,-2.73989 0.29261,0.0229 0.58517,0.0495 0.87695,0.0801 3.14549,0.33017 5.89282,1.09702 7.82381,2.58899 1.98676,1.36765 3.48219,3.58485 4.45399,5.78104 0.54696,1.25424 0.94211,2.654 1.26762,4.01164 0.29635,1.23932 0.53118,2.47443 0.74621,3.67006 -0.11099,3.03005 0.18817,6.00672 0.76843,8.86458 0.77562,3.82007 2.05778,7.46736 3.56826,10.82311 2.67299,5.69736 6.07617,10.80727 9.448,15.46831 -0.74405,0.42839 -1.38011,0.85557 -1.90531,1.25987 -3.79543,2.78473 -6.81703,5.83956 -9.63404,8.79068 -2.33867,2.33698 -4.68116,4.75274 -6.93549,6.76961 -2.19438,1.96323 -4.31954,3.56658 -6.5412,4.67 -2.40622,1.29169 -5.01653,2.16452 -7.622274,2.63188 -5.226513,1.06144 -11.484976,0.15128 -17.047538,-0.74828 -12.174034,-2.1264 -21.870657,-5.03454 -27.930078,-6.27972 -3.949445,-0.81256 -6.366389,-0.93492 -6.848678,0.016 -0.482289,0.95094 1.024896,2.89027 4.328418,5.43223 4.950259,3.81056 14.522052,9.31699 27.412281,13.29428 5.963174,1.91255 13.610708,3.59825 22.129389,2.71818 4.18747,-0.49461 8.41351,-1.70797 12.43129,-3.71347 3.58042,-1.87461 6.76369,-4.13952 9.6547,-6.62285 3.0075,-2.58338 5.60299,-5.32066 7.88066,-7.88221 2.84399,-3.05431 5.05775,-5.61876 7.46983,-7.54269 0.17588,-0.1303 0.3222,-0.24459 0.4501,-0.34726 0.066,0.0667 0.10261,0.10308 0.1757,0.17621 3.13309,3.36882 5.69514,6.73213 7.78195,10.05934 0.37453,0.61397 0.71902,1.19922 1.04955,1.77301 1.434,3.31682 2.25293,6.43159 2.42879,9.42785 0.13214,2.6462 -0.23192,5.32353 -0.97306,7.93285 -0.78138,2.75096 -1.97342,5.39732 -3.41478,7.82226 -3.61294,6.14018 -8.72193,10.91053 -13.90665,14.31489 -8.15307,5.42711 -17.08805,6.40761 -24.1086,8.24446 -6.77256,1.74146 -6.64802,19.93674 1.47329,19.43654 10.14803,-0.76929 22.23861,-4.12622 33.42174,-11.99617 7.02191,-4.98903 14.04623,-12.09983 18.86396,-21.40903 0.5575,-1.08419 1.08283,-2.21007 1.57717,-3.36568 0.5691,-0.73229 1.06368,-2.25001 1.63245,-4.35167 0.48917,-1.51878 0.91335,-3.08039 1.25212,-4.68137 0.0317,-0.14998 0.057,-0.30344 0.0873,-0.45424 0.87639,-3.32031 1.99657,-7.25928 3.61631,-11.52436 1.93354,-5.11538 4.53474,-10.46656 8.07083,-15.99592 1.24871,-1.95261 2.54573,-3.81972 3.86798,-5.59966 3.72992,-4.9341 7.06276,-8.57921 10.76523,-11.41532 3.43599,-2.51419 5.72274,-3.79864 8.29097,-4.33669 3.15026,-0.75478 5.6323,-0.3242 6.15363,-1.26659 0.36757,-0.66444 -0.84816,-3.5422 -5.96346,-4.60437 -3.71868,-0.70384 -8.4892,-0.10591 -13.26482,2.46755 -5.25192,2.70635 -10.22141,6.86015 -14.66164,12.3517 -1.62157,1.97587 -3.17498,4.10109 -4.62504,6.37067 -1.91632,2.99934 -3.51107,6.03473 -4.81728,9.05009 -0.54193,-1.27698 -1.13066,-2.52496 -1.76165,-3.73775 -2.30755,-4.43524 -5.16433,-8.50322 -8.06359,-12.20908 -3.61278,-4.67981 -7.40401,-9.02475 -10.8784,-13.35784 -3.41279,-4.25625 -6.49135,-8.45876 -8.88628,-12.9589 -1.4151,-2.53228 -2.59113,-5.16786 -3.38378,-7.82898 -0.7816,-2.62406 -1.18488,-5.24414 -1.09399,-7.83052 -0.11849,-1.91074 0.0484,-3.95313 0.41187,-6.18567 2.01594,-7.69745 5.80433,-14.98345 10.93938,-21.22506 3.81158,-4.53067 8.30761,-8.48981 12.99145,-12.74341 0.15068,-0.13684 0.30088,-0.27927 0.45166,-0.41652 1.58819,-1.02441 3.46911,-1.98682 5.94227,-3.03444 2.74489,-1.13386 5.93245,-2.2305 9.2444,-2.6851 1.75734,-0.20751 3.52049,-0.32225 4.95628,0.0837 0.13549,0.0383 0.26771,0.081 0.39688,0.12868 1.04846,0.37671 1.96974,0.93008 2.45515,1.63659 0.67011,0.77767 0.90683,2.09681 0.93534,3.37447 -0.0313,1.6314 -0.51781,3.1968 -1.3286,4.36563 -0.97033,1.4494 -2.47919,2.44134 -3.89589,2.94349 -0.4699,0.1569 -0.8557,0.27227 -1.20768,0.30644 -0.3838,0.0345 -0.71509,0.0321 -0.9772,-0.0517 -0.47486,-0.1 -0.92628,-0.56496 -1.20974,-0.98495 -0.70038,-1.07623 -0.60807,-2.17839 -0.98186,-2.32492 -0.12538,-0.0492 -1.53896,0.54056 -1.17357,2.99516 0.12937,0.91364 0.61691,2.08162 1.80661,2.96209 0.68165,0.47123 1.4882,0.79012 2.34663,0.89142 0.76425,0.0941 1.52461,0.0701 2.25206,-0.0465 2.25497,-0.33471 4.79688,-1.46575 6.77219,-3.73569 1.58868,-1.8606 2.66598,-4.3088 2.86908,-7.03729 0.21391,-2.16644 -0.22765,-4.63854 -1.71721,-6.87555 -1.32215,-1.81567 -3.15911,-3.09779 -5.19038,-3.73724 -0.24262,-0.075 -0.48548,-0.14357 -0.72864,-0.20516 -2.59564,-0.65736 -5.10134,-0.53685 -7.24968,-0.11834 -1.48131,0.26545 -2.89587,0.63455 -4.23696,1.07332 0.96559,-1.12486 1.9028,-2.2813 2.79157,-3.4866 4.42617,-6.215482 7.42311,-13.247117 8.49095,-20.478858 0.54833,-4.50404 0.34017,-8.920544 -0.62528,-13.027629 -0.61877,-2.794597 -1.60489,-5.449616 -2.91611,-7.838798 -1.37802,-2.510902 -3.10138,-4.705402 -5.12216,-6.494694 -2.64676,-2.381195 -5.70769,-3.978803 -8.73849,-5.128369 -3.25927,-1.236225 -6.69301,-2.028215 -9.7746,-2.631881 -3.47507,-0.582812 -6.567,-1.02102 -9.1121,-1.404048 z m -1.53376,159.781457 c 0.0609,0.008 0.158,0.0815 0.27492,0.18346 -0.25679,-0.10056 -0.38644,-0.15725 -0.27492,-0.18346 z m 1.52859,0.40153 c 0.006,0.009 -0.002,0.0118 -0.0181,0.0119 0.004,-0.002 0.0151,-0.0114 0.0181,-0.0119 z"
       sodipodi:nodetypes="ccscscccscccccccsccccccccsccccsccccsccccscccccccsccccccccsccscccscccscscscscccscccsccccccccsccccccccccccccscsccccccccc" />
  </g>
</svg>
